{
  "accessors": [
    {
      "bufferView": 2,
      "componentType": 5126,
      "count": 1398,
      "max": [
        4375,
        4500,
        5340
      ],
      "min": [
        -4375,
        -10911.6884765625,
        -4285.99951171875
      ],
      "type": "VEC3"
    },
    {
      "bufferView": 2,
      "byteOffset": 16776,
      "componentType": 5126,
      "count": 1398,
      "max": [
        1,
        1,
        1
      ],
      "min": [
        -1,
        -1,
        -1
      ],
      "type": "VEC3"
    },
    {
      "bufferView": 3,
      "componentType": 5126,
      "count": 1398,
      "max": [
        1,
        1,
        0.99005067348480225,
        1
      ],
      "min": [
        -1,
        -0.99999701976776123,
        -0.99512308835983276,
        1
      ],
      "type": "VEC4"
    },
    {
      "bufferView": 1,
      "componentType": 5126,
      "count": 1398,
      "max": [
        0.98873525857925415,
        0.99000000953674316
      ],
      "min": [
        0.0099999997764825821,
        0.0099999997764825821
      ],
      "type": "VEC2"
    },
    {
      "bufferView": 0,
      "componentType": 5125,
      "count": 4260,
      "max": [
        1397
      ],
      "min": [
        0
      ],
      "type": "SCALAR"
    },
    {
      "bufferView": 2,
      "byteOffset": 33552,
      "componentType": 5126,
      "count": 24,
      "max": [
        2946.615234375,
        3224.085205078125,
        2300
      ],
      "min": [
        -2946.615234375,
        -1294.0850830078125,
        2100
      ],
      "type": "VEC3"
    },
    {
      "bufferView": 2,
      "byteOffset": 33840,
      "componentType": 5126,
      "count": 24,
      "max": [
        0.28895601630210876,
        0.28392049670219421,
        0.9868127703666687
      ],
      "min": [
        -0.28895601630210876,
        -0.28392058610916138,
        0.95599353313446045
      ],
      "type": "VEC3"
    },
    {
      "bufferView": 3,
      "byteOffset": 22368,
      "componentType": 5126,
      "count": 24,
      "max": [
        0.999428391456604,
        0.016376450657844543,
        0.28898522257804871,
        1
      ],
      "min": [
        0.95730191469192505,
        -0.0069289477542042732,
        -0.28902450203895569,
        1
      ],
      "type": "VEC4"
    },
    {
      "bufferView": 1,
      "byteOffset": 11184,
      "componentType": 5126,
      "count": 24,
      "max": [
        1,
        1.0003721714019775
      ],
      "min": [
        -5.9604644775390625e-08,
        0
      ],
      "type": "VEC2"
    },
    {
      "bufferView": 0,
      "byteOffset": 17040,
      "componentType": 5125,
      "count": 102,
      "max": [
        23
      ],
      "min": [
        0
      ],
      "type": "SCALAR"
    },
    {
      "bufferView": 4,
      "componentType": 5126,
      "count": 4,
      "max": [
        4.9583334922790527
      ],
      "min": [
        0
      ],
      "type": "SCALAR"
    },
    {
      "bufferView": 5,
      "componentType": 5126,
      "count": 4,
      "max": [
        0,
        2570.09033203125,
        20546.265625
      ],
      "min": [
        0,
        75,
        400
      ],
      "type": "VEC3"
    },
    {
      "bufferView": 4,
      "byteOffset": 16,
      "componentType": 5126,
      "count": 4,
      "max": [
        4.9583334922790527
      ],
      "min": [
        0
      ],
      "type": "SCALAR"
    },
    {
      "bufferView": 6,
      "componentType": 5126,
      "count": 4,
      "max": [
        0.46193975210189819,
        -0.33141356706619263,
        0.19134171307086945,
        0.80010312795639038
      ],
      "min": [
        0.46193975210189819,
        -0.33141356706619263,
        0.19134171307086945,
        0.80010312795639038
      ],
      "type": "VEC4"
    }
  ],
  "animations": [
    {
      "channels": [
        {
          "sampler": 0,
          "target": {
            "node": 9,
            "path": "translation"
          }
        },
        {
          "sampler": 1,
          "target": {
            "node": 11,
            "path": "rotation"
          }
        }
      ],
      "name": "Take 001",
      "samplers": [
        {
          "input": 10,
          "interpolation": "LINEAR",
          "output": 11
        },
        {
          "input": 12,
          "interpolation": "LINEAR",
          "output": 13
        }
      ]
    }
  ],
  "asset": {
    "extras": {
      "author": "tipatat (https://sketchfab.com/tipatat)",
      "license": "CC-BY-4.0 (http://creativecommons.org/licenses/by/4.0/)",
      "source": "https://sketchfab.com/models/4cfc4f570628496485a17345a30a3897",
      "title": "Deep Impact TV from The Matrix"
    },
    "generator": "Sketchfab-4.25.0",
    "version": "2.0"
  },
  "bufferViews": [
    {
      "buffer": 0,
      "byteLength": 17448,
      "byteOffset": 0,
      "name": "floatBufferViews",
      "target": 34963
    },
    {
      "buffer": 0,
      "byteLength": 11376,
      "byteOffset": 17448,
      "byteStride": 8,
      "name": "floatBufferViews",
      "target": 34962
    },
    {
      "buffer": 0,
      "byteLength": 34128,
      "byteOffset": 28824,
      "byteStride": 12,
      "name": "floatBufferViews",
      "target": 34962
    },
    {
      "buffer": 0,
      "byteLength": 22752,
      "byteOffset": 62952,
      "byteStride": 16,
      "name": "floatBufferViews",
      "target": 34962
    },
    {
      "buffer": 0,
      "byteLength": 32,
      "byteOffset": 85704,
      "name": "floatBufferViews"
    },
    {
      "buffer": 0,
      "byteLength": 48,
      "byteOffset": 85736,
      "byteStride": 12,
      "name": "floatBufferViews"
    },
    {
      "buffer": 0,
      "byteLength": 64,
      "byteOffset": 85784,
      "byteStride": 16,
      "name": "floatBufferViews"
    }
  ],
  "buffers": [
    {
      "byteLength": 85848,
      "uri": "scene.bin"
    }
  ],
  "images": [
    {
      "uri": "textures/material_baseColor.png"
    },
    {
      "uri": "textures/material_normal.png"
    }
  ],
  "materials": [
    {
      "doubleSided": true,
      "emissiveFactor": [
        0,
        0,
        0
      ],
      "name": "material",
      "normalTexture": {
        "index": 1,
        "scale": 1,
        "texCoord": 0
      },
      "pbrMetallicRoughness": {
        "baseColorFactor": [
          1,
          1,
          1,
          1
        ],
        "baseColorTexture": {
          "index": 0,
          "texCoord": 0
        },
        "metallicFactor": 0.2578125,
        "roughnessFactor": 0.47389481710000003
      }
    },
    {
      "doubleSided": true,
      "emissiveFactor": [
        0,
        0,
        0
      ],
      "name": "screen",
      "pbrMetallicRoughness": {
        "baseColorFactor": [
          0.2140411405,
          0.20794923269999999,
          0.20794923269999999,
          1
        ],
        "metallicFactor": 0.34317835369999999,
        "roughnessFactor": 0.59999999999999998
      }
    }
  ],
  "meshes": [
    {
      "name": "TV_TV_0",
      "primitives": [
        {
          "attributes": {
            "NORMAL": 1,
            "POSITION": 0,
            "TANGENT": 2,
            "TEXCOORD_0": 3
          },
          "indices": 4,
          "material": 0,
          "mode": 4
        }
      ]
    },
    {
      "name": "Screen_screen_0",
      "primitives": [
        {
          "attributes": {
            "NORMAL": 6,
            "POSITION": 5,
            "TANGENT": 7,
            "TEXCOORD_0": 8
          },
          "indices": 9,
          "material": 1,
          "mode": 4
        }
      ]
    }
  ],
  "nodes": [
    {
      "children": [
        1
      ],
      "name": "RootNode (gltf orientation matrix)",
      "rotation": [
        -0.70710678118654746,
        -0,
        -0,
        0.70710678118654757
      ]
    },
    {
      "children": [
        2
      ],
      "name": "RootNode (model correction matrix)"
    },
    {
      "children": [
        3
      ],
      "matrix": [
        1,
        0,
        0,
        0,
        0,
        0,
        1,
        0,
        0,
        -1,
        0,
        0,
        0,
        0,
        0,
        1
      ],
      "name": "deep_impact_tv.fbx"
    },
    {
      "children": [
        4
      ],
      "name": ""
    },
    {
      "children": [
        5,
        9,
        11
      ],
      "name": "RootNode"
    },
    {
      "children": [
        6,
        7
      ],
      "name": "TV",
      "translation": [
        0,
        0,
        -1850
      ]
    },
    {
      "mesh": 0,
      "name": "TV_TV_0"
    },
    {
      "children": [
        8
      ],
      "name": "Screen",
      "translation": [
        0,
        0,
        1850
      ]
    },
    {
      "mesh": 1,
      "name": "Screen_screen_0"
    },
    {
      "children": [
        10
      ],
      "name": "Camera",
      "rotation": [
        -0.030843565240502357,
        0.70643377304077148,
        -0.030843565240502357,
        0.70643377304077148
      ],
      "translation": [
        0,
        2570.09033203125,
        20546.265625
      ]
    },
    {
      "name": ""
    },
    {
      "children": [
        12
      ],
      "name": "Directional Light",
      "rotation": [
        0.46193975210189819,
        -0.33141356706619263,
        0.19134171307086945,
        0.80010312795639038
      ],
      "translation": [
        -200,
        200,
        200
      ]
    },
    {
      "children": [
        13
      ],
      "matrix": [
        1,
        0,
        0,
        0,
        0,
        2.2204460492503131e-16,
        1,
        0,
        0,
        -1,
        2.2204460492503131e-16,
        0,
        0,
        0,
        0,
        1
      ],
      "name": ""
    },
    {
      "name": ""
    }
  ],
  "samplers": [
    {
      "magFilter": 9729,
      "minFilter": 9987,
      "wrapS": 10497,
      "wrapT": 10497
    }
  ],
  "scene": 0,
  "scenes": [
    {
      "name": "OSG_Scene",
      "nodes": [
        0
      ]
    }
  ],
  "textures": [
    {
      "sampler": 0,
      "source": 0
    },
    {
      "sampler": 0,
      "source": 1
    }
  ]
}

